<?xml version="1.0" encoding="utf-8"?>
<!-- Generator: Adobe Illustrator 27.5.0, SVG Export Plug-In . SVG Version: 6.00 Build 0)  -->
<svg version="1.1" xmlns="http://www.w3.org/2000/svg" xmlns:xlink="http://www.w3.org/1999/xlink" x="0px" y="0px"
	 viewBox="0 0 500 500" style="enable-background:new 0 0 500 500;" xml:space="preserve">
<g id="BACKGROUND">
	<rect style="fill:#3D3D3D;" width="500" height="500"/>
</g>
<g id="OBJECTS">
	<path style="fill:#FFFFFF;" d="M418.935,203.982c-8.751-32.705-27.161-62.685-52.245-85.316
		c-12.54-11.313-26.692-20.83-41.904-28.152c-15.208-7.329-31.476-12.45-48.119-15.159c-16.648-2.722-33.63-3.059-50.332-0.942
		c-4.175,0.52-8.335,1.18-12.459,2.013c-4.129,0.807-8.227,1.778-12.28,2.904c-8.108,2.244-16.041,5.095-23.73,8.473
		c-15.391,6.744-29.7,15.82-42.452,26.636c-12.713,10.866-23.873,23.504-32.921,37.479c-4.52,6.988-8.565,14.272-12.027,21.817
		c-3.449,7.549-6.368,15.328-8.69,23.269c-4.632,15.886-6.899,32.388-6.772,48.781c0.168,16.387,2.64,32.704,7.478,48.213
		c2.426,7.75,5.402,15.301,8.891,22.578c3.538,7.254,7.549,14.252,12.105,20.848c0.834,1.21,2.459,1.633,3.791,0.931
		c1.438-0.757,1.991-2.536,1.234-3.974l-0.006-0.011c-3.603-6.847-6.795-13.871-9.422-21.082
		c-2.678-7.187-4.831-14.541-6.442-21.987c-3.265-14.883-4.394-30.119-3.521-45.169c0.92-15.045,3.888-29.873,8.866-43.934
		c4.944-14.071,11.893-27.367,20.487-39.428c17.18-24.144,41.131-43.181,68.23-54.347c6.771-2.795,13.73-5.121,20.82-6.911
		c3.543-0.901,7.109-1.712,10.708-2.352c3.592-0.672,7.213-1.19,10.845-1.587c14.527-1.588,29.302-1.17,43.671,1.295
		c14.377,2.463,28.377,7,41.448,13.432c13.073,6.426,25.215,14.739,35.945,24.582c10.736,9.834,20.113,21.156,27.677,33.584
		c7.574,12.419,13.351,25.918,17.09,39.96c3.738,14.043,5.454,28.615,5.162,43.179c-0.31,14.555-2.672,29.042-7.058,42.903
		c-8.742,27.734-25.63,52.876-48.031,71.557c-22.357,18.738-50.137,30.886-79.144,34.501c-3.622,0.481-7.27,0.76-10.919,0.99
		c-3.665,0.184-7.279,0.259-11.035,0.221c-7.436-0.094-14.811-0.555-21.979-1.604c-7.165-1.038-14.143-2.629-20.641-4.981
		c-6.493-2.349-12.494-5.463-17.605-9.424c-2.545-1.99-4.869-4.185-6.949-6.575c-2.074-2.395-3.872-5.009-5.431-7.789
		c-3.103-5.569-5.107-11.898-6.163-18.61c-1.04-6.723-1.142-13.805-0.565-20.967c0.575-7.168,1.861-14.419,3.557-21.637
		c1.727-7.23,3.893-14.394,6.394-21.564c2.549-7.322,5.214-14.618,7.974-21.885c5.524-14.533,11.403-28.963,17.592-43.265
		c6.2-14.296,12.687-28.478,19.475-42.488c6.8-13.985,13.866-27.897,21.48-41.184c1.141-1.979,2.3-3.939,3.471-5.86
		c0.471,1.416,0.939,2.839,1.4,4.266c4.729,14.742,9.088,29.805,13.344,44.86c8.441,30.158,16.329,60.524,23.892,90.914
		c1.894,7.597,3.751,15.2,5.555,22.808c1.834,7.601,3.621,15.207,5.327,22.815c0.009,0.039,0.017,0.078,0.026,0.117
		c-6.108-7.085-12.814-13.631-20.047-19.507c-9.795-8.034-20.581-14.779-31.914-20.176c-11.362-5.348-23.275-9.342-35.412-11.847
		c-1.795-0.372-3.635,0.627-4.265,2.403c-0.689,1.94,0.326,4.07,2.265,4.759l0.02,0.007c11.201,3.977,22,8.797,32.056,14.779
		c10.082,5.923,19.431,12.932,27.899,20.816c8.436,7.921,15.999,16.712,22.508,26.193c3.238,4.748,6.255,9.641,8.925,14.687
		c1.332,2.522,2.609,5.066,3.771,7.634c0.582,1.282,1.139,2.57,1.658,3.85l0.747,1.905l0.34,0.926l0.261,0.767
		c1.256,3.681,4.844,6.24,8.917,6.01c4.903-0.276,8.654-4.475,8.378-9.378l-0.005-0.083c-0.246-4.362-0.753-8.408-1.297-12.447
		c-0.555-4.025-1.184-7.991-1.851-11.937c-1.337-7.888-2.82-15.692-4.425-23.458c-1.594-7.767-3.261-15.502-4.979-23.219
		c-1.748-7.71-3.545-15.401-5.379-23.081c-7.385-30.706-15.472-61.185-24.018-91.588c-4.284-15.211-8.648-30.369-13.508-45.581
		c-1.227-3.81-2.484-7.616-3.88-11.501c-0.708-1.954-1.429-3.898-2.335-6.032c-0.23-0.538-0.475-1.092-0.761-1.696
		c-0.291-0.608-0.599-1.242-1.11-2.113c-0.281-0.459-0.551-0.932-1.24-1.797c-0.376-0.438-0.8-0.998-1.943-1.896
		c-1.292-1.12-4.329-2.201-5.644-2.117c-1.732-0.114-2.955,0.18-3.838,0.427c-0.961,0.29-1.496,0.547-2.093,0.842
		c-0.429,0.227-0.937,0.524-1.224,0.723c-0.355,0.233-0.639,0.442-0.88,0.629c-1.001,0.779-1.599,1.38-2.16,1.948
		c-0.55,0.566-1.006,1.081-1.428,1.578c-0.846,0.995-1.559,1.92-2.237,2.832c-1.347,1.819-2.541,3.578-3.691,5.333
		c-2.291,3.505-4.39,6.982-6.437,10.473c-8.116,13.95-15.386,28.053-22.436,42.298c-7.02,14.246-13.715,28.625-20.126,43.138
		c-6.416,14.511-12.565,29.147-18.351,43.959c-2.894,7.406-5.696,14.856-8.389,22.358c-2.749,7.65-5.223,15.531-7.223,23.58
		c-1.975,8.066-3.536,16.326-4.302,24.832c-0.768,8.495-0.788,17.245,0.483,26.087c1.285,8.818,3.927,17.769,8.397,26.001
		c2.235,4.104,4.88,8.025,7.914,11.608c3.038,3.579,6.427,6.836,10.047,9.724c7.269,5.76,15.39,9.99,23.636,13.074
		c8.265,3.086,16.688,5.061,25.062,6.368c8.382,1.313,16.731,1.91,25.014,2.101c4.106,0.086,8.356,0.048,12.545-0.124
		c4.199-0.216,8.398-0.5,12.578-1.007c16.724-1.93,33.199-6.267,48.719-12.875c15.517-6.616,30.072-15.475,43.095-26.2
		c13.027-10.721,24.527-23.303,34.035-37.266c9.508-13.963,16.97-29.328,22.118-45.436
		C426.893,271.771,427.795,236.669,418.935,203.982z"/>
</g>
</svg>
